#!OML:ASF E:\emotionWalksFemale\Project 1\Capture day 1\Session 1\Female1.ASF
:FULLY-SPECIFIED
:DEGREES
49
root 8.93297 15.538 22.6933 179.408 1.22092 179.825
lowerback 8.24849 0.591852 -0.713336
upperback -5.04649 0.825627 0.0825207
thorax -10.037 0.497451 0.342421
lowerneck -9.29099 -2.43954 -6.51586
upperneck 15.3712 -4.19215 8.39936
head 6.49909 -1.95162 3.3972
rclavicle -1.08165e-014 -4.45712e-016
rhumerus -46.195 14.7019 -97.4145
rradius 37.1727
rwrist 22.5369
rhand -11.805 -52.6504
rfingers 7.12502
rthumb 14.2449 -82.1419
lclavicle -1.08165e-014 -4.45712e-016
lhumerus -46.8281 1.34478 86.7049
lradius 36.299
lwrist -14.5848
lhand -0.577976 -37.9664
lfingers 7.12502
lthumb 25.0367 -9.58729
rfemur -0.411707 19.3233 26.1445
rtibia 15.6811
rfoot -15.132 -29.9843
rtoes 6.54589
lfemur -4.3905 -22.9151 -25.0183
ltibia 20.5538
lfoot -20.2577 22.2587
ltoes -21.4513
50
root 8.93211 15.5375 22.6936 179.472 1.21098 179.844
lowerback 8.19826 0.590696 -0.717303
upperback -5.0095 0.824504 0.108727
thorax -9.96664 0.49728 0.373883
lowerneck -9.28686 -2.43867 -6.62664
upperneck 15.2547 -4.16931 8.47619
head 6.46339 -1.93823 3.44224
rclavicle -1.04432e-014 -1.3418e-015
rhumerus -46.2377 14.7326 -97.3413
rradius 37.2034
rwrist 23.1356
rhand -10.8345 -52.7905
rfingers 7.12502
rthumb 15.1799 -82.2137
lclavicle -1.04432e-014 -1.3418e-015
lhumerus -46.7777 1.3626 86.7691
lradius 36.3165
lwrist -14.5712
lhand -0.392127 -37.8225
lfingers 7.12502
lthumb 25.2147 -9.46835
rfemur -0.49359 19.2737 26.1281
rtibia 15.6574
rfoot -15.0239 -29.9855
rtoes 6.02588
lfemur -4.47541 -22.9146 -24.9684
ltibia 20.5693
lfoot -20.4499 22.1089
ltoes -20.5
51
root 8.93037 15.5423 22.6965 179.599 1.28552 179.864
lowerback 8.20281 0.627427 -0.7243
upperback -5.064 0.876412 0.105841
thorax -10.0305 0.524507 0.365264
lowerneck -9.24467 -2.42936 -6.56729
upperneck 15.1872 -4.15529 8.44684
head 6.4318 -1.93049 3.42386
rclavicle -9.8907e-015 -1.32316e-015
rhumerus -46.3917 14.6798 -97.3565
rradius 37.3057
rwrist 23.3509
rhand -9.88941 -53.038
rfingers 7.12502
rthumb 16.0901 -82.39
lclavicle -9.8907e-015 -1.32316e-015
lhumerus -46.7826 1.32389 86.7718
lradius 36.2388
lwrist -14.573
lhand -0.296185 -37.8369
lfingers 7.12502
lthumb 25.3066 -9.49573
rfemur -0.649063 19.2621 26.0709
rtibia 15.6109
rfoot -14.9769 -29.8613
rtoes 6.00803
lfemur -4.65008 -22.8901 -24.8905
ltibia 20.5899
lfoot -20.473 22.0784
ltoes -19.9536
52
root 8.92924 15.5474 22.6972 179.701 1.34373 179.899
lowerback 8.28326 0.66026 -0.720372
upperback -5.16404 0.927087 0.112889
thorax -10.1902 0.551947 0.35968
lowerneck -9.19441 -2.45071 -6.54378
upperneck 15.2033 -4.19338 8.42947
head 6.43031 -1.95158 3.41129
rclavicle -2.40522e-015 8.98414e-016
rhumerus -46.4979 14.6541 -97.3613
rradius 37.2134
rwrist 23.1059
rhand -10.7098 -52.9123
rfingers 7.12502
rthumb 15.3001 -82.3264
lclavicle -2.40522e-015 8.98414e-016
lhumerus -46.8934 1.25027 86.7814
lradius 36.1539
lwrist -14.5995
lhand -0.457034 -38.0205
lfingers 7.12502
lthumb 25.1525 -9.65757
rfemur -0.745966 19.2454 26.0492
rtibia 15.5655
rfoot -15.0514 -29.7141
rtoes 6.53873
lfemur -4.79063 -22.8574 -24.806
ltibia 20.6039
lfoot -20.2262 22.248
ltoes -20.9806
53
root 8.92915 15.5469 22.6951 179.697 1.23415 179.931
lowerback 8.40488 0.632996 -0.713538
upperback -5.20009 0.894503 0.146229
thorax -10.303 0.537779 0.395151
lowerneck -9.20763 -2.4742 -6.64967
upperneck 15.2015 -4.21147 8.46191
head 6.43628 -1.96267 3.43797
rclavicle -3.88251e-017 -1.01877e-015
rhumerus -46.502 14.6785 -97.2834
rradius 37.0272
rwrist 23.0076
rhand -11.4396 -52.7911
rfingers 7.12502
rthumb 14.5969 -82.2575
lclavicle -3.88251e-017 -1.01877e-015
lhumerus -46.9893 1.25202 86.8164
lradius 36.1489
lwrist -14.6261
lhand -0.461488 -38.1306
lfingers 7.12502
lthumb 25.1483 -9.76705
rfemur -0.685762 19.2974 26.1146
rtibia 15.5413
rfoot -15.1241 -29.8738
rtoes 6.69348
lfemur -4.79766 -22.8742 -24.7661
ltibia 20.6141
lfoot -20.0015 22.2669
ltoes -22.1517
54
root 8.92866 15.5448 22.6933 179.621 1.07885 179.948
lowerback 8.50888 0.60549 -0.705689
upperback -5.16 0.855195 0.16274
thorax -10.3202 0.517109 0.414579
lowerneck -9.23492 -2.50064 -6.73301
upperneck 15.13 -4.22597 8.4955
head 6.4221 -1.96844 3.46106
rclavicle -1.01194e-014 -1.42876e-015
rhumerus -46.477 14.6813 -97.1816
rradius 36.9535
rwrist 23.1212
rhand -11.2216 -52.9539
rfingers 7.12502
rthumb 14.807 -82.4049
lclavicle -1.01194e-014 -1.42876e-015
lhumerus -46.9638 1.28 86.845
lradius 36.1054
lwrist -14.6991
lhand -0.345943 -38.0755
lfingers 7.12502
lthumb 25.259 -9.72759
rfemur -0.539438 19.3723 26.1989
rtibia 15.5093
rfoot -15.183 -30.1085
rtoes 6.60656
lfemur -4.73068 -22.9617 -24.78
ltibia 20.6507
lfoot -20.0193 22.1845
ltoes -22.4177
55
root 8.9274 15.5444 22.6939 179.591 1.13957 179.964
lowerback 8.52578 0.643154 -0.716404
upperback -5.11054 0.901895 0.174843
thorax -10.2765 0.539112 0.425948
lowerneck -9.17452 -2.52013 -6.75379
upperneck 14.9591 -4.23419 8.51438
head 6.35913 -1.97065 3.46941
rclavicle -3.75672e-015 -2.12451e-015
rhumerus -46.4532 14.723 -97.1408
rradius 36.9374
rwrist 23.1376
rhand -10.028 -53.5315
rfingers 7.12502
rthumb 15.9567 -82.8942
lclavicle -3.75672e-015 -2.12451e-015
lhumerus -46.9234 1.36404 86.822
lradius 36.1055
lwrist -14.8005
lhand -0.300247 -37.9349
lfingers 7.12502
lthumb 25.3028 -9.5931
rfemur -0.48699 19.3868 26.2097
rtibia 15.4524
rfoot -15.1431 -30.0101
rtoes 6.87518
lfemur -4.72692 -22.9464 -24.7885
ltibia 20.7181
lfoot -20.0178 22.329
ltoes -23.0423
56
root 8.92591 15.5446 22.6943 179.618 1.25393 179.988
lowerback 8.4875 0.700816 -0.70624
upperback -5.08151 0.980169 0.180577
thorax -10.2225 0.575607 0.413715
lowerneck -9.13827 -2.54916 -6.7752
upperneck 14.8088 -4.2562 8.53358
head 6.30815 -1.9791 3.47672
rclavicle 6.18096e-016 6.08778e-016
rhumerus -46.4308 14.7944 -97.1573
rradius 36.9365
rwrist 23.0455
rhand -6.69568 -54.5633
rfingers 7.12502
rthumb 19.1635 -83.6391
lclavicle 6.18096e-016 6.08778e-016
lhumerus -46.9349 1.39349 86.7963
lradius 36.1886
lwrist -14.8579
lhand -0.447233 -37.9133
lfingers 7.12502
lthumb 25.1619 -9.55171
rfemur -0.526939 19.4028 26.2018
rtibia 15.4277
rfoot -15.0713 -29.8944
rtoes 7.13322
lfemur -4.77767 -22.8472 -24.7608
ltibia 20.765
lfoot -20.1038 22.3331
ltoes -22.4639
57
root 8.92661 15.5431 22.6909 179.617 1.12858 180
lowerback 8.45738 0.674839 -0.714065
upperback -5.0441 0.942183 0.179583
thorax -10.1625 0.556734 0.424462
lowerneck -9.21214 -2.57027 -6.75125
upperneck 14.7632 -4.27117 8.51361
head 6.30723 -1.98213 3.46415
rclavicle -6.84099e-015 -1.18028e-015
rhumerus -46.4209 14.8753 -97.1615
rradius 36.9517
rwrist 23.0532
rhand -7.40749 -53.9588
rfingers 7.12502
rthumb 18.4789 -83.1011
lclavicle -6.84099e-015 -1.18028e-015
lhumerus -46.9211 1.36096 86.7939
lradius 36.1996
lwrist -14.9042
lhand -0.613147 -37.9099
lfingers 7.12502
lthumb 25.003 -9.52609
rfemur -0.474997 19.4879 26.2545
rtibia 15.4175
rfoot -15.2891 -30.1158
rtoes 7.35766
lfemur -4.78851 -22.8358 -24.7366
ltibia 20.7938
lfoot -20.2981 22.094
ltoes -21.2798
58
root 8.92235 15.5434 22.6915 179.65 1.26318 180.008
lowerback 8.48042 0.714426 -0.682677
upperback -5.03442 0.997964 0.175429
thorax -10.1658 0.580831 0.392643
lowerneck -9.26573 -2.57309 -6.70411
upperneck 14.709 -4.26233 8.47502
head 6.29721 -1.9744 3.44387
rclavicle -8.15328e-017 7.70291e-016
rhumerus -46.4029 14.9605 -97.1557
rradius 36.9117
rwrist 22.9655
rhand -6.88474 -54.3838
rfingers 7.12502
rthumb 18.9817 -83.4776
lclavicle -8.15328e-017 7.70291e-016
lhumerus -46.8732 1.30514 86.8184
lradius 36.1878
lwrist -14.8604
lhand -0.496586 -37.7775
lfingers 7.12502
lthumb 25.1146 -9.40925
rfemur -0.557152 19.4192 26.193
rtibia 15.3865
rfoot -15.0931 -29.9915
rtoes 6.57973
lfemur -4.84103 -22.8896 -24.7457
ltibia 20.8366
lfoot -20.3445 22.2927
ltoes -21.5584
59
root 8.92028 15.5443 22.6902 179.672 1.32032 180.023
lowerback 8.46361 0.739556 -0.675874
upperback -5.01603 1.03159 0.173971
thorax -10.1357 0.596012 0.381974
lowerneck -9.29517 -2.59999 -6.67053
upperneck 14.6574 -4.28647 8.43186
head 6.28666 -1.98472 3.42167
rclavicle 1.18331e-014 3.75827e-015
rhumerus -46.343 14.9724 -97.1279
rradius 36.7748
rwrist 22.8736
rhand -6.40712 -54.9021
rfingers 7.12502
rthumb 19.441 -83.9502
lclavicle 1.18331e-014 3.75827e-015
lhumerus -46.8035 1.14224 86.8752
lradius 36.1742
lwrist -14.6794
lhand -0.321395 -37.6665
lfingers 7.12502
lthumb 25.2825 -9.3219
rfemur -0.597813 19.3694 26.1839
rtibia 15.3831
rfoot -14.8196 -29.9213
rtoes 6.33738
lfemur -4.85328 -22.9927 -24.7409
ltibia 20.8611
lfoot -20.2897 22.4515
ltoes -22.0869
60
root 8.91883 15.5431 22.6879 179.664 1.28933 180.036
lowerback 8.4939 0.742792 -0.657608
upperback -5.01051 1.03593 0.158589
thorax -10.147 0.595871 0.354165
lowerneck -9.31076 -2.62503 -6.64543
upperneck 14.659 -4.31623 8.3925
head 6.29107 -1.99969 3.40201
rclavicle 8.44408e-015 9.38792e-016
rhumerus -46.2945 14.9102 -97.0509
rradius 36.6383
rwrist 23.1507
rhand -6.18508 -54.9046
rfingers 7.12502
rthumb 19.6544 -83.931
lclavicle 8.44408e-015 9.38792e-016
lhumerus -46.762 0.95745 86.9114
lradius 36.1106
lwrist -14.5435
lhand -0.38738 -37.7165
lfingers 7.12502
lthumb 25.2193 -9.36297
rfemur -0.590169 19.3464 26.2084
rtibia 15.4372
rfoot -14.7867 -29.9346
rtoes 6.51099
lfemur -4.81178 -23.0641 -24.7445
ltibia 20.8447
lfoot -20.3228 22.415
ltoes -21.748
61
root 8.91786 15.5421 22.6863 179.636 1.25723 180.027
lowerback 8.55485 0.729259 -0.664415
upperback -5.00425 1.01482 0.154132
thorax -10.1762 0.58543 0.356121
lowerneck -9.28062 -2.6173 -6.68111
upperneck 14.618 -4.29896 8.4066
head 6.2725 -1.99236 3.41413
rclavicle 4.66678e-016 -5.31128e-016
rhumerus -46.2892 14.9483 -96.9853
rradius 36.6332
rwrist 23.5495
rhand -5.98443 -54.6932
rfingers 7.12502
rthumb 19.8473 -83.6998
lclavicle 4.66678e-016 -5.31128e-016
lhumerus -46.7246 0.933377 86.8944
lradius 36.0056
lwrist -14.601
lhand -0.542724 -37.8435
lfingers 7.12502
lthumb 25.0704 -9.4691
rfemur -0.567442 19.347 26.2096
rtibia 15.4792
rfoot -14.9161 -29.9559
rtoes 6.46887
lfemur -4.76568 -22.9772 -24.7767
ltibia 20.8303
lfoot -20.3025 22.3661
ltoes -21.7454
